[Header]
FileType HTR
DataType HTRS
FileVersion 1
NumSegments 22
NumFrames 5
DataFrameRate 24
EulerRotationOrder ZYX
CalibrationUnits mm
RotationUnits Degrees
GlobalAxisofGravity Y
BoneLengthAxis Y
ScaleFactor 1.0
[SegmentNames&Hierarchy]
reference	GLOBAL
Hips	reference
Spine	Hips
Spine1	Spine
Neck	Spine1
Head	Neck
LeftShoulder	Spine1
LeftArm	LeftShoulder
LeftForeArm	LeftArm
LeftHand	LeftForeArm
RightShoulder	Spine1
RightArm	RightShoulder
RightForeArm	RightArm
RightHand	RightForeArm
LeftUpLeg	Hips
LeftLeg	LeftUpLeg
LeftFoot	LeftLeg
LeftToeBase	LeftFoot
RightUpLeg	Hips
RightLeg	RightUpLeg
RightFoot	RightLeg
RightToeBase	RightFoot
[BasePosition]
reference	0	0	0	0	0	0	1
Hips	0	0	0	0	0	0	1
Spine	0	0	0	0	-0	90	1
Spine1	0	0	0	0	0	0	1
Neck	0	0	0	-7.352327771	-7.352327771	90	1
Head	0	0	0	0	-0	90	1
LeftShoulder	0	0	0	0	0	0	1
LeftArm	0	0	0	0	0	0	1
LeftForeArm	0	0	0	0	0	0	1
LeftHand	0	0	0	0	0	0	1
RightShoulder	0	0	0	0	-0	180	1
RightArm	0	0	0	0	-0	180	1
RightForeArm	0	0	0	0	-0	180	1
RightHand	0	0	0	0	-0	180	1
LeftUpLeg	0	0	0	0	-0	-90	1
LeftLeg	0	0	0	0	-0	-90	1
LeftFoot	0	0	0	66.57146043	-66.57146043	-90	1
LeftToeBase	0	0	0	0	-90	0	1
RightUpLeg	0	0	0	0	-0	-90	1
RightLeg	0	0	0	0	-0	-90	1
RightFoot	0	0	0	66.57146043	-66.57146043	-90	1
RightToeBase	0	0	0	0	-90	0	1
[reference]
55	0	0	0	0	-0	0	1.0
56	0	0	0	0	-0	0	1.0
57	0	0	0	0	-0	0	1.0
58	0	0	0	0	-0	0	1.0
59	0	0	0	0	-0	0	1.0
[Hips]
55	1.018980026	8.909509659	-0.5727500319	3.062332153	-100.6744537	2.964614868	1.0
56	1.128333807	9.088489532	-0.7496737242	-4.813787937	-103.2021332	10.79200649	1.0
57	1.188793302	9.085801125	-0.9055622816	-11.09023285	-106.9211349	16.18096542	1.0
58	1.226533175	8.99322319	-1.08902061	-16.32025528	-111.0372772	21.16477966	1.0
59	1.305268407	8.747447968	-1.304625869	-17.67526245	-113.0566025	22.70025826	1.0
[Spine]
55	0	0.7457100153	0	-5.445150375	0.6951013803	-92.11824036	1.0
56	0	0.7457100153	0	-4.329676151	0.5491629839	-92.27806091	1.0
57	0	0.7457100153	0	-2.791094542	0.9285723567	-90.44268036	1.0
58	0	0.7457100153	0	-3.180257082	1.708938718	-88.36598969	1.0
59	0	0.7457100153	0	-4.770736217	1.286267042	-88.35922241	1.0
[Spine1]
55	0	2.140589952	0	2.674460888	0.2520121932	0.4688079655	1.0
56	0	2.140589952	0	2.315216541	0.1334567368	3.666807175	1.0
57	0	2.140589952	0	1.393798709	0.2515515089	5.10858202	1.0
58	0	2.140589952	0	1.54877162	0.4773851037	6.701124668	1.0
59	0	2.140589952	0	2.527657032	0.2553425133	8.334862709	1.0
[Neck]
55	0	2.32246995	0	-14.60922813	6.125113487	-93.01177216	1.0
56	0	2.32246995	0	-14.74649239	8.107782364	-93.01457977	1.0
57	0	2.32246995	0	-15.32118797	10.72545528	-93.62863159	1.0
58	0	2.32246995	0	-14.43576622	12.59591579	-93.34259033	1.0
59	0	2.32246995	0	-10.70325756	11.74944878	-89.55488586	1.0
[Head]
55	0	1.409579992	0.1818799973	-8.938839912	0.2786473036	-92.26226807	1.0
56	0	1.409579992	0.1818799973	-9.296013832	0.2575539052	-91.14111328	1.0
57	0	1.409579992	0.1818799973	-6.062786102	0.1671881825	-88.95862579	1.0
58	0	1.409579992	0.1818799973	-4.016810894	0.7289469838	-88.26467133	1.0
59	0	1.409579992	0.1818799973	-4.869128227	5.157847881	-93.10697937	1.0
[LeftShoulder]
55	0.3668199778	1.946700096	-0.02662999928	-17.41484642	-12.34646034	-1.64583981	1.0
56	0.3668199778	1.946700096	-0.02662999928	-16.39541817	-13.67349243	-1.937783122	1.0
57	0.3668199778	1.946700096	-0.02662999928	-15.15879917	-13.91844463	-2.601745844	1.0
58	0.3668199778	1.946700096	-0.02662999928	-15.60123062	-13.21173573	-2.529806137	1.0
59	0.3668199778	1.946700096	-0.02662999928	-15.84937954	-13.03150749	-2.232331991	1.0
[LeftArm]
55	1.140689969	0	0	47.82449341	11.23111629	-72.29341125	1.0
56	1.140689969	0	0	47.76793671	11.4756403	-71.48841095	1.0
57	1.140689969	0	0	48.0704422	11.29688072	-70.07819366	1.0
58	1.140689969	0	0	48.05607605	11.12315941	-70.13282776	1.0
59	1.140689969	0	0	47.68523026	11.01746941	-70.89266205	1.0
[LeftForeArm]
55	2.749800205	0	0	-138.6806183	-45.54155731	158.3908997	1.0
56	2.749800205	0	0	-137.1367645	-45.04237366	157.9325714	1.0
57	2.749800205	0	0	-137.3588257	-44.9392662	158.1009827	1.0
58	2.749800205	0	0	-139.3345032	-45.68810272	159.2035217	1.0
59	2.749800205	0	0	-139.4297943	-45.59786606	158.9393005	1.0
[LeftHand]
55	2.295179844	0	0	-8.795397758	-22.31060791	6.190866947	1.0
56	2.295179844	0	0	-8.91546917	-21.87547684	7.297836781	1.0
57	2.295179844	0	0	-9.166122437	-22.09571838	8.560994148	1.0
58	2.295179844	0	0	-7.962306976	-21.76054955	8.089365005	1.0
59	2.295179844	0	0	-8.585826874	-21.94458199	7.456648827	1.0
[RightShoulder]
55	-0.3601199985	1.946700096	-0.02662999928	-8.789951324	2.932401896	175.3533325	1.0
56	-0.3601199985	1.946700096	-0.02662999928	-8.2645998	3.567120075	175.7995605	1.0
57	-0.3601199985	1.946700096	-0.02662999928	-6.344721794	4.227243423	177.2417755	1.0
58	-0.3601199985	1.946700096	-0.02662999928	-7.226735115	3.190899849	176.9089661	1.0
59	-0.3601199985	1.946700096	-0.02662999928	-7.279867649	3.644412041	176.7797089	1.0
[RightArm]
55	-1.140689969	0	0	59.83623505	0.437345773	-104.0042572	1.0
56	-1.140689969	0	0	60.91415024	1.080723524	-104.8308563	1.0
57	-1.140689969	0	0	61.49345398	2.296801805	-105.8819427	1.0
58	-1.140689969	0	0	61.91042328	1.527313828	-105.3958893	1.0
59	-1.140689969	0	0	60.68808746	1.313146591	-104.3938751	1.0
[RightForeArm]
55	-2.749800205	0	0	-104.5031586	46.07706451	-323.9467163	1.0
56	-2.749800205	0	0	-103.8815308	45.59952927	-323.440033	1.0
57	-2.749800205	0	0	-103.391861	44.82664871	-323.3377075	1.0
58	-2.749800205	0	0	-103.726265	44.75986862	-323.5562134	1.0
59	-2.749800205	0	0	-102.8798676	44.61625671	-322.886261	1.0
[RightHand]
55	-2.295179844	0	0	-2.741123199	18.96539307	-200.1161804	1.0
56	-2.295179844	0	0	-3.533332348	19.12603378	-199.5863342	1.0
57	-2.295179844	0	0	-4.158407688	18.69239807	-199.3744507	1.0
58	-2.295179844	0	0	-4.279699326	18.54566765	-199.8217163	1.0
59	-2.295179844	0	0	-4.667545795	18.49952126	-199.5382843	1.0
[LeftUpLeg]
55	0.9094099998	0	0	-14.35569096	16.16617203	97.35552979	1.0
56	0.9094099998	0	0	-12.14788055	12.55398083	95.55847168	1.0
57	0.9094099998	0	0	-7.498094082	7.502146244	94.24040985	1.0
58	0.9094099998	0	0	-3.426322699	2.869155407	95.1665802	1.0
59	0.9094099998	0	0	-2.500823975	7.100297928	97.26824951	1.0
[LeftLeg]
55	0	-4.498080254	0	33.51638794	-3.782319069	78.1459198	1.0
56	0	-4.498080254	0	29.26842499	-3.989993572	78.00774384	1.0
57	0	-4.498080254	0	20.81902695	-0.112507537	82.0827179	1.0
58	0	-4.498080254	0	13.52947044	8.626391411	84.8290863	1.0
59	0	-4.498080254	0	14.13724804	8.48698616	85.76811218	1.0
[LeftFoot]
55	0	-3.729400158	0	-6.78541851	100.5888824	39.09902954	1.0
56	0	-3.729400158	0	48.22023773	104.0323868	84.81760406	1.0
57	0	-3.729400158	0	149.3004913	84.80350494	183.0036621	1.0
58	0	-3.729400158	0	117.2394638	70.89476013	158.8922424	1.0
59	0	-3.729400158	0	91.37919617	73.81677246	142.7931824	1.0
[LeftToeBase]
55	0	-0.5911099911	1.364109993	0	0	0	1.0
56	0	-0.5911099911	1.364109993	0	0	0	1.0
57	0	-0.5911099911	1.364109993	0	0	0	1.0
58	0	-0.5911099911	1.364109993	0	0	0	1.0
59	0	-0.5911099911	1.364109993	0	0	0	1.0
[RightUpLeg]
55	-0.9094099998	0	0	-12.48155975	-28.87049484	94.90197754	1.0
56	-0.9094099998	0	0	-14.51122952	-28.22259521	95.75474548	1.0
57	-0.9094099998	0	0	-15.442873	-21.52163887	93.97749329	1.0
58	-0.9094099998	0	0	-15.58909225	-21.15621185	94.36119843	1.0
59	-0.9094099998	0	0	-16.09441566	-24.43535614	93.58583832	1.0
[RightLeg]
55	0	-4.498080254	0	20.37802887	-3.760440826	84.60525513	1.0
56	0	-4.498080254	0	23.63075829	-2.846935511	85.1829071	1.0
57	0	-4.498080254	0	28.09978104	-0.7843682766	88.25552368	1.0
58	0	-4.498080254	0	27.23750877	-3.16977334	85.34707642	1.0
59	0	-4.498080254	0	24.17337036	-5.397204876	82.54606628	1.0
[RightFoot]
55	0	-3.729400158	0	79.00671387	54.79773331	112.5220032	1.0
56	0	-3.729400158	0	91.43276978	40.84144974	111.7507324	1.0
57	0	-3.729400158	0	90.99940491	35.92736053	109.3628006	1.0
58	0	-3.729400158	0	82.41056824	38.1771698	107.3928375	1.0
59	0	-3.729400158	0	76.84752655	45.89524841	109.9471588	1.0
[RightToeBase]
55	0	-0.5911099911	1.364109993	0	0	0	1.0
56	0	-0.5911099911	1.364109993	0	0	0	1.0
57	0	-0.5911099911	1.364109993	0	0	0	1.0
58	0	-0.5911099911	1.364109993	0	0	0	1.0
59	0	-0.5911099911	1.364109993	0	0	0	1.0
[EndOfFile]
